<mxfile host="65bd71144e">
    <diagram id="j_AafGKrkRrts8JDxaIP" name="Page-1">
        <mxGraphModel dx="2010" dy="914" grid="1" gridSize="10" guides="1" tooltips="1" connect="1" arrows="1" fold="1" page="0" pageScale="1" pageWidth="850" pageHeight="1100" math="0" shadow="0">
            <root>
                <mxCell id="0"/>
                <mxCell id="1" parent="0"/>
                <mxCell id="4" value="" style="shape=datastore;whiteSpace=wrap;html=1;labelBackgroundColor=none;" vertex="1" parent="1">
                    <mxGeometry x="140" y="460" width="390" height="420" as="geometry"/>
                </mxCell>
                <mxCell id="3" value="&lt;font style=&quot;font-size: 18px;&quot;&gt;Server&lt;/font&gt;" style="swimlane;whiteSpace=wrap;html=1;" vertex="1" parent="1">
                    <mxGeometry x="100" y="70" width="450" height="280" as="geometry"/>
                </mxCell>
                <mxCell id="7" value="" style="sketch=0;pointerEvents=1;shadow=0;dashed=0;html=1;aspect=fixed;labelPosition=center;verticalLabelPosition=bottom;verticalAlign=top;align=center;outlineConnect=0;shape=mxgraph.vvd.monitor;" vertex="1" parent="1">
                    <mxGeometry x="860" y="220" width="537.63" height="500" as="geometry"/>
                </mxCell>
                <mxCell id="9" value="&lt;font style=&quot;font-size: 18px;&quot;&gt;DB&lt;/font&gt;" style="text;strokeColor=none;align=center;fillColor=none;html=1;verticalAlign=middle;whiteSpace=wrap;rounded=0;labelBackgroundColor=none;" vertex="1" parent="1">
                    <mxGeometry x="295" y="490" width="60" height="30" as="geometry"/>
                </mxCell>
                <mxCell id="10" value="" style="shape=note;whiteSpace=wrap;html=1;backgroundOutline=1;darkOpacity=0.05;labelBackgroundColor=none;" vertex="1" parent="1">
                    <mxGeometry x="1020" y="270" width="230" height="250" as="geometry"/>
                </mxCell>
                <mxCell id="11" value="index.js" style="text;strokeColor=none;align=center;fillColor=none;html=1;verticalAlign=middle;whiteSpace=wrap;rounded=0;labelBackgroundColor=none;fontSize=21;" vertex="1" parent="1">
                    <mxGeometry x="1100" y="380" width="70" height="30" as="geometry"/>
                </mxCell>
                <mxCell id="23" value="" style="group" vertex="1" connectable="0" parent="1">
                    <mxGeometry x="195" y="600" width="280" height="250" as="geometry"/>
                </mxCell>
                <mxCell id="12" value="" style="ellipse;shape=cloud;whiteSpace=wrap;html=1;labelBackgroundColor=none;fontSize=18;" vertex="1" parent="23">
                    <mxGeometry width="280" height="250" as="geometry"/>
                </mxCell>
                <mxCell id="16" value="Data N" style="text;strokeColor=none;align=center;fillColor=none;html=1;verticalAlign=middle;whiteSpace=wrap;rounded=0;labelBackgroundColor=none;fontSize=18;" vertex="1" parent="23">
                    <mxGeometry x="115" y="160" width="60" height="30" as="geometry"/>
                </mxCell>
                <mxCell id="20" value="...." style="text;strokeColor=none;align=center;fillColor=none;html=1;verticalAlign=middle;whiteSpace=wrap;rounded=0;labelBackgroundColor=none;fontSize=18;" vertex="1" parent="23">
                    <mxGeometry x="110" y="130" width="60" height="30" as="geometry"/>
                </mxCell>
                <mxCell id="21" value="Data 2" style="text;strokeColor=none;align=center;fillColor=none;html=1;verticalAlign=middle;whiteSpace=wrap;rounded=0;labelBackgroundColor=none;fontSize=18;" vertex="1" parent="23">
                    <mxGeometry x="110" y="100" width="60" height="30" as="geometry"/>
                </mxCell>
                <mxCell id="22" value="Data 1" style="text;strokeColor=none;align=center;fillColor=none;html=1;verticalAlign=middle;whiteSpace=wrap;rounded=0;labelBackgroundColor=none;fontSize=18;" vertex="1" parent="23">
                    <mxGeometry x="110" y="70" width="60" height="30" as="geometry"/>
                </mxCell>
            </root>
        </mxGraphModel>
    </diagram>
</mxfile>